<svg xmlns="http://www.w3.org/2000/svg" viewBox="0 0 88.92 16.42"><title>Asset 3736278</title><path d="M10.49,11.26c-.12,2.83-.48,3.91-3.07,3.91-3.55,0-5.11-2.42-5.11-6.53,0-5.09,1.85-7.39,5.16-7.39,2.66,0,2.83,1.08,3,3.89H12V.72A16.06,16.06,0,0,0,7.46,0C2.69,0,0,3.17,0,8.93s3.38,7.49,7.2,7.49a17,17,0,0,0,4.77-.7l.2-4.46Zm5.68-.91c0,4.24,2.52,6,5.4,6s5.4-1.73,5.4-6-2.52-6-5.4-6-5.4,1.73-5.4,6Zm8.6,0c0,3.38-1,4.82-3.2,4.82s-3.19-1.44-3.19-4.82,1-4.83,3.19-4.83,3.2,1.44,3.2,4.83ZM36.65,16h6.19V15H42c-.74,0-1.1-.29-1.1-1.37V7.95c0-2.48-1.35-3.58-3.72-3.58a4,4,0,0,0-3.67,1.87h-.08V4.47c-1.17.12-3.24.19-4.17.19V5.74h1.17c.92,0,1.08.55,1.08,1.17v6.72c0,.84-.38,1.4-1.58,1.4h-.67v1h6.33V15h-.48c-1.2,0-1.58-.56-1.58-1.4V9.51c0-2.09.89-3.89,3.07-3.89,1.54,0,2.28.93,2.28,3.24v4.73c0,1.17-.48,1.44-1.2,1.44H36.65v1Zm10-8.3c0,1.27-.1,4.34-.1,5.52,0,2.16,1,3.07,3,3.07s3.22-1,3.22-3.55H51.31c0,1.7-.48,2.3-1.37,2.3s-1.25-.36-1.25-2.2V5.74h3.1V4.66h-3.1V1.47H47.3c-.14,2.13-.48,3.19-2.71,3.19V5.74h2.09v2ZM62.61,16h3.68V15c-1.66,0-1.85-.1-1.85-2.09s.05-3.72.05-5.47c0-2.09-1.61-3.1-4.2-3.1C56,4.37,55.53,6.46,55.49,8H57.6c0-1.56.43-2.57,2.57-2.57,1.44,0,2.3.84,2.3,2.54V9.27H60c-3.38,0-4.82,1.65-4.82,3.86,0,2,1.46,3.19,3.5,3.19a4,4,0,0,0,3.92-2.25h0v2Zm-5.35-3.14c0-1.61,1.08-2.54,3.67-2.54h1.54A6.81,6.81,0,0,1,62,13.2a3,3,0,0,1-2.67,1.73,1.94,1.94,0,0,1-2.11-2Zm21-7.78a9.55,9.55,0,0,0-3.89-.74c-2.95,0-5.57,1.75-5.57,6.07,0,4.11,2,5.88,5.26,5.88,2.18,0,4.46-1,4.46-4.05H76.92c-.17,1.87-1.06,2.9-2.79,2.9-1.41,0-3.14-1.1-3.14-4.68,0-3.36,1.49-5,3.36-5,1.68,0,2.21.89,2.21,2.95h1.68V5.11ZM82.8,7.73c0,1.27-.1,4.34-.1,5.52,0,2.16,1,3.07,3,3.07s3.22-1,3.22-3.55H87.43c-.05,1.7-.48,2.3-1.37,2.3s-1.25-.36-1.25-2.2V5.74h3.1V4.66h-3.1V1.47H83.42c-.14,2.13-.48,3.19-2.71,3.19V5.74H82.8v2Z" style="fill:#fff"/></svg>