<svg xmlns="http://www.w3.org/2000/svg" viewBox="0 0 668 33.96"><title>Asset 7</title><path d="M0,9.92H2.38l.29-3.46c.15-1.73.69-2.06,2.92-2.06H9V22c0,2.38-.79,2.6-2.34,2.6H4.87V26.2H16.35V24.57h-1.8c-1.55,0-2.34-.22-2.34-2.6V4.4h3.43c2.24,0,2.78.33,2.92,2.06l.29,3.46h2.38V2.67H0V9.92ZM34.21,26.2h9.31V24.68H42.29c-1.12,0-1.66-.43-1.66-2.06V14c0-3.72-2-5.38-5.45-5.38a6,6,0,0,0-5.52,2.81h-.11V0c-1.91.18-5,.29-6.42.29V1.91H24.9c1.37,0,1.62.83,1.62,1.77V22.59c0,1.26-.58,2.09-2.38,2.09h-1V26.2h9.53V24.68h-.72c-1.8,0-2.38-.83-2.38-2.09V16.38c0-3.14,1.33-5.85,4.62-5.85,2.31,0,3.43,1.41,3.43,4.87v7.11c0,1.77-.72,2.17-1.8,2.17H34.21V26.2Zm24.28,0H64V24.68c-2.49,0-2.78-.14-2.78-3.14s.07-5.59.07-8.23c0-3.14-2.42-4.65-6.32-4.65-6.39,0-7.14,3.14-7.22,5.48H51c.07-2.35.65-3.86,3.86-3.86,2.17,0,3.46,1.26,3.46,3.82V16H54.52c-5.09,0-7.25,2.49-7.25,5.81,0,3,2.2,4.8,5.27,4.8a6.05,6.05,0,0,0,5.88-3.39h.07v3Zm-8-4.73c0-2.42,1.62-3.83,5.52-3.83h2.31a10.12,10.12,0,0,1-.65,4.29,4.48,4.48,0,0,1-4,2.6,2.93,2.93,0,0,1-3.18-3.07ZM87.9,26.2h9.17V24.68H95.84c-1.12,0-1.66-.43-1.66-2.06V14c0-3.72-2-5.38-5.45-5.38a6.47,6.47,0,0,0-5.48,2.85C82.49,9.46,81,8.66,78.59,8.66a6,6,0,0,0-5.52,2.81H73V8.8c-1.77.18-4.87.29-6.28.29v1.62h1.77c1.37,0,1.62.83,1.62,1.77v10.1c0,1.26-.58,2.09-2.38,2.09h-1V26.2h9.53V24.68h-.72c-1.8,0-2.38-.83-2.38-2.09V16.38c0-3.14,1.34-5.85,4-5.85,2.35,0,3.5,1.41,3.5,4.87v7.18c0,1.26-.58,2.09-2.38,2.09h-.87V26.2h9.38V24.68H86c-1.8,0-2.38-.83-2.38-2.09V16.38c0-3.14,1.34-5.85,4.08-5.85,2.31,0,3.43,1.41,3.43,4.87v7.11c0,1.77-.72,2.17-1.8,2.17H87.9V26.2ZM103.71,16c.15-3.46,1.7-5.63,4.51-5.63,2.56,0,3.93,2.06,4,5.63Zm8.7,5.3a4,4,0,0,1-4.15,3.57c-2.85,0-4.51-2.16-4.55-7.15h11.51V15.7c0-5-3.14-7-6.89-7-4.83,0-7.79,3.1-7.79,9,0,6.24,2.71,9,7.69,9,3.72,0,6.17-1.62,6.71-5.3Zm7.4,4.58a28.4,28.4,0,0,0,6.17.72c4.62,0,7.11-2.09,7.11-5.23,0-6.6-10.17-4.15-10.17-8.23,0-1.62.94-2.78,3.68-2.78s3.57.69,3.57,4H132V9.49a17.24,17.24,0,0,0-5.23-.83c-4.84,0-7.07,2-7.07,5.12,0,6.21,10.18,3.61,10.18,8,0,2-1.34,3.07-4.08,3.07-3.39,0-3.64-1-3.93-4.33H119.8v5.34ZM172.34,4.29h1.41c1.26,0,1.84.14,1.84.76a9.32,9.32,0,0,1-.29,1.48l-4.51,17h-.07L164.91,2.67h-3.32l-6.1,20.57h-.07l-4-15.88a12.76,12.76,0,0,1-.43-2.16c0-.69.29-.9,2.16-.9h1.34V2.67h-9.09V4.29c1.8,0,2.13.36,2.53,1.77l5.59,20.35h3.46l5.92-20.14h.07l5.77,20.14h3.54l5.7-20.1c.58-2,1.08-2,2.63-2V2.67h-8.23V4.29Zm20,21.9h9.31V24.68h-1.23c-1.12,0-1.66-.43-1.66-2.06V14c0-3.72-2-5.38-5.45-5.38a6,6,0,0,0-5.52,2.81h-.11V0c-1.91.18-5,.29-6.42.29V1.91H183c1.37,0,1.62.83,1.62,1.77V22.59c0,1.26-.58,2.09-2.38,2.09h-1V26.2h9.53V24.68H190c-1.8,0-2.38-.83-2.38-2.09V16.38c0-3.14,1.33-5.85,4.62-5.85,2.31,0,3.43,1.41,3.43,4.87v7.11c0,1.77-.72,2.17-1.81,2.17H192.3V26.2Zm24.28,0h5.52V24.68c-2.49,0-2.78-.14-2.78-3.14s.07-5.59.07-8.23c0-3.14-2.42-4.65-6.32-4.65-6.39,0-7.15,3.14-7.22,5.48H209c.07-2.35.65-3.86,3.86-3.86,2.16,0,3.46,1.26,3.46,3.82V16h-3.75c-5.09,0-7.25,2.49-7.25,5.81,0,3,2.2,4.8,5.27,4.8a6.05,6.05,0,0,0,5.88-3.39h.07v3Zm-8-4.73c0-2.42,1.62-3.83,5.52-3.83h2.31a10.12,10.12,0,0,1-.65,4.29,4.48,4.48,0,0,1-4,2.6,2.93,2.93,0,0,1-3.17-3.07Zm16.67-10.75H227c1.37,0,1.62.83,1.62,1.77v10.1c0,1.26-.58,2.09-2.38,2.09h-1V26.2h10.25V24.68H234c-1.8,0-2.38-.83-2.38-2.09v-6c0-4.3,2.49-5.59,3.82-5.59s2.06.9,2.38,2.53h1.88V9a23.88,23.88,0,0,0-2.56-.15c-2.82,0-4.44,1-5.74,3.65h-.07V8.8c-1.62.18-4.73.29-6.13.29v1.62Zm16.31,0h3.39V23.06c0,1.19-.69,1.62-2,1.62h-1.37V26.2H252V24.68h-1.77c-1.73,0-2.27-.43-2.27-2.71V10.72h4.55V9.09h-4.55v-2c0-3.9,1.55-5.27,3.61-5.27,1.77,0,2.24,1.34,2.31,3.79h2.09V.83a19.79,19.79,0,0,0-4-.54c-4.29,0-7,1.73-7,7V9.09h-3.39v1.62Zm25.94,0h1.77c1.37,0,1.62.83,1.62,1.77v10.1c0,1.26-.58,2.09-2.38,2.09h-1V26.2H277V24.68h-.72c-1.8,0-2.38-.83-2.38-2.09V8.8c-1.91.18-5,.29-6.42.29v1.62Zm2.71-8c0,1.52.79,2.38,2.13,2.38s2.13-.87,2.13-2.38S273.63.29,272.3.29s-2.13.87-2.13,2.38Zm11.22,23.24a28.4,28.4,0,0,0,6.17.72c4.62,0,7.11-2.09,7.11-5.23,0-6.6-10.18-4.15-10.18-8.23,0-1.62.94-2.78,3.68-2.78s3.57.69,3.57,4h1.88V9.49a17.25,17.25,0,0,0-5.23-.83c-4.84,0-7.07,2-7.07,5.12,0,6.21,10.18,3.61,10.18,8,0,2-1.33,3.07-4.08,3.07-3.39,0-3.64-1-3.93-4.33h-2.09v5.34Zm49.15.29h9.16V24.68h-1.22c-1.12,0-1.66-.43-1.66-2.06V14c0-3.72-2-5.38-5.45-5.38a6.48,6.48,0,0,0-5.49,2.85c-.76-2.06-2.27-2.85-4.65-2.85a6,6,0,0,0-5.52,2.81h-.11V8.8c-1.77.18-4.87.29-6.28.29v1.62h1.77c1.37,0,1.62.83,1.62,1.77v10.1c0,1.26-.58,2.09-2.38,2.09h-1V26.2h9.53V24.68h-.73c-1.8,0-2.38-.83-2.38-2.09V16.38c0-3.14,1.34-5.85,4-5.85,2.34,0,3.5,1.41,3.5,4.87v7.18c0,1.26-.58,2.09-2.38,2.09H320V26.2h9.38V24.68h-.72c-1.8,0-2.38-.83-2.38-2.09V16.38c0-3.14,1.33-5.85,4.08-5.85,2.31,0,3.42,1.41,3.42,4.87v7.11c0,1.77-.72,2.17-1.8,2.17h-1.44V26.2Zm24.14,0h5.52V24.68c-2.49,0-2.78-.14-2.78-3.14s.07-5.59.07-8.23c0-3.14-2.42-4.65-6.31-4.65-6.39,0-7.15,3.14-7.22,5.48h3.18c.07-2.35.65-3.86,3.86-3.86,2.16,0,3.46,1.26,3.46,3.82V16h-3.75c-5.09,0-7.26,2.49-7.26,5.81,0,3,2.21,4.8,5.27,4.8a6.07,6.07,0,0,0,5.89-3.39h.07v3Zm-8-4.73c0-2.42,1.62-3.83,5.52-3.83h2.31a10.06,10.06,0,0,1-.65,4.29,4.47,4.47,0,0,1-4,2.6,2.93,2.93,0,0,1-3.18-3.07ZM377.3,26.2h6.14V24.68h-1.27c-1.44,0-2.13-.25-2.13-3V0c-1.91.18-5,.29-6.42.29V1.91h1.77c1.37,0,1.62.83,1.62,1.77V11.4h-.07a5.62,5.62,0,0,0-5.16-2.74c-4.26,0-7.43,3.21-7.43,9.53,0,6.64,3.5,8.44,6.85,8.44a6.45,6.45,0,0,0,6-3.39h.07v3Zm-.14-8.48c0,4.22-1.73,7-4.73,7-3.17,0-4.76-2.09-4.76-7.15,0-4.22,1.73-7.07,4.76-7.07s4.73,2.13,4.73,7.18ZM389.9,16c.14-3.46,1.69-5.63,4.51-5.63,2.56,0,3.93,2.06,4,5.63Zm8.69,5.3a4,4,0,0,1-4.15,3.57c-2.85,0-4.51-2.16-4.54-7.15h11.51V15.7c0-5-3.14-7-6.9-7-4.83,0-7.79,3.1-7.79,9,0,6.24,2.71,9,7.69,9,3.71,0,6.17-1.62,6.71-5.3Zm17-10.61h1.77c1.37,0,1.62.83,1.62,1.77v10.1c0,1.26-.58,2.09-2.38,2.09h-1V26.2h9.52V24.68h-.72c-1.8,0-2.38-.83-2.38-2.09V8.8c-1.91.18-5,.29-6.42.29v1.62Zm2.7-8c0,1.52.8,2.38,2.13,2.38s2.13-.87,2.13-2.38S421.76.29,420.42.29s-2.13.87-2.13,2.38ZM439,26.2h9.31V24.68h-1.23c-1.12,0-1.66-.43-1.66-2.06V14c0-3.72-2-5.38-5.59-5.38a6,6,0,0,0-5.52,2.81h-.11V8.8c-1.77.18-4.87.29-6.28.29v1.62h1.77c1.37,0,1.62.83,1.62,1.77v10.1c0,1.26-.58,2.09-2.38,2.09h-1V26.2h9.53V24.68h-.73c-1.8,0-2.38-.83-2.38-2.09V16.38c0-3.14,1.34-5.85,4.62-5.85,2.31,0,3.43,1.41,3.43,4.87v7.11c0,1.77-.72,2.17-1.8,2.17H439V26.2Zm22.44-15.48h1.77c1.37,0,1.62.83,1.62,1.77V30.35c0,1.26-.57,2.09-2.38,2.09h-1V34h9.67V32.44h-.86c-1.81,0-2.38-.83-2.38-2.09V24.21h.07a6.29,6.29,0,0,0,5.12,2.42c3.25,0,7.29-1.73,7.29-9.56,0-5.45-2.81-8.41-6.75-8.41a6.24,6.24,0,0,0-5.81,3.21h-.07V8.8c-1.77.18-4.87.29-6.28.29v1.62Zm15.74,6.93c0,4.73-1.59,7.11-4.66,7.11s-4.65-2.38-4.65-7.11,1.62-7.11,4.65-7.11,4.66,2.42,4.66,7.11Zm19.62,8.55h5.53V24.68c-2.49,0-2.78-.14-2.78-3.14s.07-5.59.07-8.23c0-3.14-2.42-4.65-6.32-4.65-6.38,0-7.14,3.14-7.21,5.48h3.17c.08-2.35.65-3.86,3.86-3.86,2.17,0,3.47,1.26,3.47,3.82V16h-3.75c-5.09,0-7.26,2.49-7.26,5.81,0,3,2.2,4.8,5.27,4.8a6.05,6.05,0,0,0,5.88-3.39h.07v3Zm-8-4.73c0-2.42,1.62-3.83,5.52-3.83h2.31a10.22,10.22,0,0,1-.65,4.29,4.49,4.49,0,0,1-4,2.6,2.92,2.92,0,0,1-3.17-3.07Zm16.67-10.75h1.77c1.37,0,1.62.83,1.62,1.77v10.1c0,1.26-.58,2.09-2.38,2.09h-1V26.2h10.25V24.68h-1.45c-1.8,0-2.38-.83-2.38-2.09v-6c0-4.3,2.49-5.59,3.83-5.59s2.05.9,2.38,2.53h1.88V9a23.94,23.94,0,0,0-2.57-.15c-2.81,0-4.44,1-5.73,3.65h-.08V8.8c-1.62.18-4.72.29-6.13.29v1.62Zm19.7,3c0,1.91-.14,6.53-.14,8.3,0,3.25,1.51,4.62,4.51,4.62,3.17,0,4.83-1.44,4.83-5.34h-2.23c-.08,2.56-.73,3.46-2.06,3.46-1.16,0-1.88-.54-1.88-3.32V10.72h4.66V9.09h-4.66V4.29h-2.09c-.22,3.21-.72,4.8-4.08,4.8v1.62h3.14v3ZM547.59,26.2h9.31V24.68h-1.23c-1.12,0-1.66-.43-1.66-2.06V14c0-3.72-2-5.38-5.59-5.38a6,6,0,0,0-5.53,2.81h-.1V8.8c-1.77.18-4.88.29-6.28.29v1.62h1.77c1.37,0,1.62.83,1.62,1.77v10.1c0,1.26-.58,2.09-2.38,2.09h-1V26.2H546V24.68h-.72c-1.8,0-2.38-.83-2.38-2.09V16.38c0-3.14,1.34-5.85,4.62-5.85,2.31,0,3.43,1.41,3.43,4.87v7.11c0,1.77-.72,2.17-1.81,2.17h-1.58V26.2ZM563.53,16c.15-3.46,1.7-5.63,4.52-5.63,2.56,0,3.93,2.06,4,5.63Zm8.7,5.3a4,4,0,0,1-4.15,3.57c-2.85,0-4.51-2.16-4.55-7.15h11.52V15.7c0-5-3.14-7-6.9-7-4.83,0-7.79,3.1-7.79,9,0,6.24,2.71,9,7.69,9,3.71,0,6.17-1.62,6.71-5.3Zm6.24-10.61h1.77c1.37,0,1.63.83,1.63,1.77v10.1c0,1.26-.58,2.09-2.39,2.09h-1V26.2h10.25V24.68h-1.44c-1.81,0-2.38-.83-2.38-2.09v-6c0-4.3,2.49-5.59,3.82-5.59s2.06.9,2.38,2.53H593V9a23.9,23.9,0,0,0-2.56-.15c-2.82,0-4.44,1-5.74,3.65h-.07V8.8c-1.63.18-4.73.29-6.14.29v1.62Zm17.9,15.19a28.41,28.41,0,0,0,6.17.72c4.62,0,7.11-2.09,7.11-5.23,0-6.6-10.18-4.15-10.18-8.23,0-1.62.94-2.78,3.69-2.78s3.57.69,3.57,4h1.87V9.49a17.24,17.24,0,0,0-5.23-.83c-4.83,0-7.07,2-7.07,5.12,0,6.21,10.18,3.61,10.18,8,0,2-1.34,3.07-4.08,3.07-3.39,0-3.65-1-3.94-4.33h-2.09v5.34Zm28.26.29h9.31V24.68h-1.23c-1.12,0-1.66-.43-1.66-2.06V14c0-3.72-2-5.38-5.45-5.38a6,6,0,0,0-5.52,2.81H620V0c-1.91.18-5,.29-6.42.29V1.91h1.77c1.37,0,1.62.83,1.62,1.77V22.59c0,1.26-.58,2.09-2.38,2.09h-1V26.2h9.52V24.68h-.72c-1.8,0-2.38-.83-2.38-2.09V16.38c0-3.14,1.34-5.85,4.62-5.85,2.31,0,3.43,1.41,3.43,4.87v7.11c0,1.77-.72,2.17-1.81,2.17h-1.58V26.2Zm12.12-15.48h1.77c1.37,0,1.62.83,1.62,1.77v10.1c0,1.26-.57,2.09-2.38,2.09h-1V26.2h9.53V24.68h-.72c-1.81,0-2.39-.83-2.39-2.09V8.8c-1.91.18-5,.29-6.42.29v1.62Zm2.71-8c0,1.52.79,2.38,2.13,2.38s2.12-.87,2.12-2.38S642.92.29,641.59.29s-2.13.87-2.13,2.38Zm9.63,8h1.77c1.37,0,1.62.83,1.62,1.77V30.35c0,1.26-.57,2.09-2.38,2.09h-1V34h9.67V32.44h-.86c-1.81,0-2.39-.83-2.39-2.09V24.21h.08a6.29,6.29,0,0,0,5.12,2.42c3.25,0,7.29-1.73,7.29-9.56,0-5.45-2.81-8.41-6.75-8.41a6.24,6.24,0,0,0-5.81,3.21h-.07V8.8c-1.77.18-4.87.29-6.28.29v1.62Zm15.73,6.93c0,4.73-1.58,7.11-4.65,7.11s-4.66-2.38-4.66-7.11,1.63-7.11,4.66-7.11,4.65,2.42,4.65,7.11Z" style="fill:#fff"/></svg>