<svg xmlns="http://www.w3.org/2000/svg" viewBox="0 0 245.06 17.71"><title>Asset 78236</title><path d="M0,17.42H6.34c4.2,0,8.83-1,8.83-7.68s-3.89-8-8.5-8H0V2.86H1.2c1,0,1.56.14,1.56,1.72v10c0,1.58-.53,1.72-1.56,1.72H0v1.08ZM4.87,3c3.46,0,4.75.15,5.83.92,1.34,1,2.16,2.68,2.16,5.61,0,5.16-2.4,6.63-6.12,6.63H4.87V3Zm13.34,8.72c0,4.24,2.52,6,5.4,6S29,16,29,11.74s-2.52-6-5.4-6-5.4,1.73-5.4,6Zm8.59,0c0,3.38-1,4.82-3.19,4.82s-3.19-1.44-3.19-4.82,1-4.83,3.19-4.83,3.19,1.44,3.19,4.83Zm9.41,4.15h0l-2-7.2a4.24,4.24,0,0,1-.19-1c0-.34.22-.62.94-.62H36v-1H30.62v1c1.1.12,1.37.55,1.68,1.6l2.62,8.91h2.25l3.14-9.84h0l3,9.84h2.21l2.69-8.95C48.65,7.54,49,7.15,50,7.06v-1H45.09v1h1c.72,0,.91.14.91.45a3.39,3.39,0,0,1-.14.75l-2.23,7.63h0l-3-9.84H39.38l-3.17,9.84Zm22.51,1.53h6.19v-1H64.1c-.74,0-1.1-.29-1.1-1.37V9.34c0-2.48-1.34-3.58-3.72-3.58a4,4,0,0,0-3.67,1.87h-.07V5.86c-1.18.12-3.24.19-4.18.19V7.13h1.18c.91,0,1.08.55,1.08,1.17V15c0,.84-.38,1.4-1.58,1.4h-.67v1H57.7v-1h-.48c-1.2,0-1.58-.56-1.58-1.4V10.9c0-2.09.89-3.89,3.07-3.89C60.24,7,61,7.94,61,10.25V15c0,1.17-.48,1.44-1.2,1.44H58.73v1ZM66.79,1.27H68c.91,0,1.08.55,1.08,1.18V15c0,.84-.38,1.4-1.58,1.4h-.67v1h6.34v-1h-.48c-1.2,0-1.58-.56-1.58-1.4V0c-1.27.12-3.34.19-4.27.19V1.27Zm8.93,10.47c0,4.24,2.52,6,5.4,6s5.4-1.73,5.4-6-2.52-6-5.4-6-5.4,1.73-5.4,6Zm8.59,0c0,3.38-1,4.82-3.19,4.82s-3.19-1.44-3.19-4.82,1-4.83,3.19-4.83,3.19,1.44,3.19,4.83ZM97.2,17.42h3.67v-1c-1.66,0-1.85-.1-1.85-2.09s0-3.72,0-5.47c0-2.09-1.61-3.1-4.2-3.1-4.25,0-4.75,2.09-4.8,3.65h2.11c0-1.56.43-2.57,2.57-2.57,1.44,0,2.3.84,2.3,2.54v1.28H94.56c-3.39,0-4.83,1.65-4.83,3.86,0,2,1.47,3.19,3.51,3.19a4,4,0,0,0,3.91-2.25h.05v2Zm-5.36-3.14c0-1.61,1.08-2.54,3.68-2.54h1.53a6.65,6.65,0,0,1-.43,2.85A3,3,0,0,1,94,16.32a2,2,0,0,1-2.12-2Zm20.4,3.14h4.08v-1h-.84c-1,0-1.41-.17-1.41-2V0c-1.27.12-3.34.19-4.27.19V1.27H111c.91,0,1.08.55,1.08,1.18V7.58h0a3.73,3.73,0,0,0-3.43-1.82c-2.83,0-4.94,2.14-4.94,6.34,0,4.41,2.33,5.61,4.56,5.61a4.3,4.3,0,0,0,4-2.25h0v2Zm-.09-5.64c0,2.81-1.15,4.68-3.15,4.68s-3.16-1.39-3.16-4.75C105.84,8.9,107,7,109,7s3.15,1.41,3.15,4.77Zm14.39,2.84c0,1.58-.53,1.72-1.56,1.72h-1.4v1.08h8.26V16.34h-1.63c-1,0-1.56-.14-1.56-1.72V10.7h1.51c4.34,0,6.22-1.72,6.22-4.6,0-3.12-2.14-4.32-4.73-4.32h-8.07V2.93H125c1,0,1.56.14,1.56,1.73v10ZM128.65,3h1.77c2.5,0,3.75.82,3.75,3.1,0,2-1,3.34-4.27,3.34h-1.25V3Zm10,4.11h1.18c.91,0,1.08.55,1.08,1.17V15c0,.84-.38,1.4-1.58,1.4h-.68v1h6.82v-1h-1c-1.2,0-1.58-.56-1.58-1.4v-4c0-2.85,1.65-3.72,2.54-3.72s1.37.6,1.58,1.68h1.25V5.95a15.59,15.59,0,0,0-1.7-.09,3.76,3.76,0,0,0-3.82,2.42h0V5.86c-1.08.12-3.14.19-4.08.19V7.13Zm13.68,3.53c.1-2.31,1.13-3.75,3-3.75,1.71,0,2.62,1.37,2.64,3.75Zm5.79,3.52a2.63,2.63,0,0,1-2.76,2.38c-1.9,0-3-1.44-3-4.75H160V10.44c0-3.31-2.09-4.68-4.58-4.68-3.22,0-5.19,2.06-5.19,6,0,4.15,1.8,6,5.11,6,2.48,0,4.11-1.08,4.47-3.53Zm4.92,3a19,19,0,0,0,4.1.48c3.07,0,4.73-1.39,4.73-3.48,0-4.39-6.77-2.76-6.77-5.47,0-1.08.63-1.85,2.45-1.85S170,7.37,170,9.55h1.24V6.31a11.4,11.4,0,0,0-3.48-.55c-3.21,0-4.7,1.34-4.7,3.41,0,4.13,6.77,2.4,6.77,5.35,0,1.32-.89,2-2.71,2-2.26,0-2.43-.67-2.62-2.88h-1.39v3.55Zm12.48,0a19,19,0,0,0,4.1.48c3.07,0,4.73-1.39,4.73-3.48,0-4.39-6.77-2.76-6.77-5.47,0-1.08.63-1.85,2.45-1.85s2.38.46,2.38,2.64h1.24V6.31a11.4,11.4,0,0,0-3.48-.55c-3.21,0-4.7,1.34-4.7,3.41,0,4.13,6.77,2.4,6.77,5.35,0,1.32-.89,2-2.71,2-2.26,0-2.43-.67-2.62-2.88h-1.39v3.55Zm20.17-2.61c0,1.58-.53,1.72-1.56,1.72h-1.39v1.08H201V16.34h-1.63c-1,0-1.56-.14-1.56-1.72V10.7h1.51c4.35,0,6.22-1.72,6.22-4.6,0-3.12-2.14-4.32-4.73-4.32h-8.06V2.93h1.39c1,0,1.56.14,1.56,1.73v10ZM197.85,3h1.78c2.49,0,3.74.82,3.74,3.1,0,2-1,3.34-4.27,3.34h-1.25V3Zm17.07,14.4h3.67v-1c-1.66,0-1.85-.1-1.85-2.09s.05-3.72.05-5.47c0-2.09-1.61-3.1-4.2-3.1-4.25,0-4.75,2.09-4.8,3.65h2.11c0-1.56.43-2.57,2.57-2.57,1.44,0,2.3.84,2.3,2.54v1.28h-2.49c-3.39,0-4.83,1.65-4.83,3.86,0,2,1.47,3.19,3.51,3.19a4,4,0,0,0,3.91-2.25h.05v2Zm-5.36-3.14c0-1.61,1.08-2.54,3.68-2.54h1.53a6.65,6.65,0,0,1-.43,2.85,3,3,0,0,1-2.66,1.73,2,2,0,0,1-2.12-2Zm21-7.78a9.52,9.52,0,0,0-3.89-.74c-3,0-5.57,1.75-5.57,6.07,0,4.11,2,5.88,5.26,5.88,2.18,0,4.46-1,4.46-4h-1.58c-.17,1.87-1.06,2.9-2.78,2.9-1.42,0-3.15-1.1-3.15-4.68,0-3.36,1.49-5,3.36-5,1.68,0,2.21.89,2.21,2.95h1.68V6.5Zm2-5.23h1.17c.91,0,1.08.55,1.08,1.18V15c0,.84-.38,1.4-1.58,1.4h-.67v1h6.33v-1h-.48c-1.2,0-1.58-.56-1.58-1.4V0c-1.27.12-3.34.19-4.27.19V1.27ZM237,11.42l3.46,3.75c.38.43.57.69.57.84s-.24.41-.72.41h-.5v1h5.28v-1c-.84-.05-1.15-.27-2-1.18l-4-4.2L242,8.14a3.24,3.24,0,0,1,2.54-1.08v-1H239v1h.67c.6,0,.8.19.8.45a1.16,1.16,0,0,1-.44.79L237,11.42Z" style="fill:#fff"/></svg>