<svg xmlns="http://www.w3.org/2000/svg" viewBox="0 0 334.52 31.5"><title>Asset 1</title><path d="M14.9,21.09h-.07L9,2.48H.27V4H2c1.91,0,2.28.7,2.28,2.51,0,4.65-.2,9.31-.2,14,0,2.14-.6,2.34-2.58,2.34H0V24.3H9.47V22.8H8.17c-1.24,0-1.91-.27-1.91-2.18,0-2.18.1-10,.24-16.54h.07L13.19,24.3H16L22.83,3.78h.07c.07,6.23.27,13.05.27,16.47,0,2-.6,2.54-1.87,2.54H19.85V24.3h10V22.8H28c-1.47,0-2-.3-2-2.58,0-4.82-.13-9.54-.13-14.23,0-1.64.47-2,2-2h2V2.48h-9l-6,18.61Zm29,3.21H49V22.9c-2.31,0-2.58-.13-2.58-2.91s.07-5.19.07-7.63C46.46,9.44,44.22,8,40.6,8c-5.93,0-6.63,2.91-6.7,5.09h2.95c.07-2.18.6-3.58,3.58-3.58,2,0,3.21,1.17,3.21,3.55v1.77H40.17c-4.72,0-6.73,2.31-6.73,5.39,0,2.74,2,4.45,4.89,4.45a5.61,5.61,0,0,0,5.46-3.15h.07V24.3Zm-7.46-4.38c0-2.24,1.51-3.55,5.12-3.55h2.14a9.4,9.4,0,0,1-.6,4,4.16,4.16,0,0,1-3.72,2.41,2.71,2.71,0,0,1-2.95-2.84ZM64.84,24.3h5.69V22.9H69.36c-1.34,0-2-.23-2-2.74V0c-1.77.17-4.65.27-6,.27V1.77h1.64c1.27,0,1.51.77,1.51,1.64v7.16h-.07A5.21,5.21,0,0,0,59.72,8c-4,0-6.9,3-6.9,8.84,0,6.16,3.25,7.83,6.36,7.83a6,6,0,0,0,5.59-3.15h.07V24.3Zm-.13-7.87c0,3.92-1.61,6.53-4.39,6.53C57.38,23,55.9,21,55.9,16.34c0-3.92,1.61-6.56,4.42-6.56s4.39,2,4.39,6.66Zm11.82-1.57c.13-3.21,1.57-5.22,4.18-5.22,2.38,0,3.65,1.91,3.68,5.22Zm8.07,4.92a3.68,3.68,0,0,1-3.85,3.31c-2.64,0-4.18-2-4.22-6.63H87.2V14.56C87.2,9.94,84.29,8,80.81,8c-4.49,0-7.23,2.88-7.23,8.34,0,5.79,2.51,8.34,7.13,8.34,3.45,0,5.72-1.51,6.23-4.92Zm15.77-9.84H102c1.27,0,1.51.77,1.51,1.64V21c0,1.17-.54,1.94-2.21,1.94h-.94V24.3h8.84V22.9h-.67c-1.67,0-2.21-.77-2.21-1.94V8.17c-1.78.17-4.65.27-6,.27V9.94Zm2.51-7.47c0,1.41.74,2.21,2,2.21s2-.8,2-2.21-.74-2.21-2-2.21-2,.8-2,2.21ZM122.08,24.3h8.64V22.9h-1.14c-1,0-1.54-.4-1.54-1.91V13c0-3.45-1.88-5-5.19-5a5.55,5.55,0,0,0-5.12,2.61h-.1V8.17c-1.64.17-4.52.27-5.83.27V9.94h1.64c1.27,0,1.51.77,1.51,1.64V21c0,1.17-.54,1.94-2.21,1.94h-.94V24.3h8.84V22.9H120c-1.67,0-2.21-.77-2.21-1.94V15.2c0-2.91,1.24-5.42,4.29-5.42,2.14,0,3.18,1.31,3.18,4.52v6.59c0,1.64-.67,2-1.67,2h-1.47V24.3ZM142.91,9.94h1.64c1.27,0,1.5.77,1.5,1.64V28.15c0,1.17-.53,1.94-2.21,1.94h-.93V31.5h9V30.09h-.8c-1.68,0-2.21-.77-2.21-1.94V22.46h.06a5.85,5.85,0,0,0,4.76,2.24c3,0,6.76-1.61,6.76-8.87,0-5.05-2.61-7.8-6.26-7.8a5.78,5.78,0,0,0-5.39,3h-.07V8.17c-1.64.17-4.52.27-5.82.27V9.94Zm14.59,6.43c0,4.38-1.47,6.59-4.32,6.59s-4.31-2.21-4.31-6.59,1.5-6.6,4.31-6.6,4.32,2.24,4.32,6.6Zm18.21,7.93h5.12V22.9c-2.31,0-2.57-.13-2.57-2.91s.06-5.19.06-7.63c0-2.91-2.24-4.32-5.85-4.32-5.93,0-6.63,2.91-6.7,5.09h2.95c.06-2.18.6-3.58,3.58-3.58,2,0,3.21,1.17,3.21,3.55v1.77H172c-4.72,0-6.73,2.31-6.73,5.39,0,2.74,2,4.45,4.89,4.45a5.62,5.62,0,0,0,5.46-3.15h.06V24.3Zm-7.46-4.38c0-2.24,1.5-3.55,5.12-3.55h2.14a9.39,9.39,0,0,1-.6,4,4.16,4.16,0,0,1-3.72,2.41,2.71,2.71,0,0,1-2.94-2.84Zm15.46-10h1.64c1.28,0,1.51.77,1.51,1.64V21c0,1.17-.54,1.94-2.21,1.94h-.94V24.3h9.51V22.9h-1.34c-1.67,0-2.21-.77-2.21-1.94V15.43c0-4,2.31-5.19,3.55-5.19s1.91.84,2.21,2.34h1.74V8.3a22.25,22.25,0,0,0-2.38-.13c-2.61,0-4.11.94-5.32,3.38h-.07V8.17c-1.5.17-4.38.27-5.69.27V9.94ZM202,12.72c0,1.77-.13,6.06-.13,7.7,0,3,1.4,4.29,4.18,4.29,2.95,0,4.49-1.34,4.49-5h-2.08c-.07,2.38-.67,3.21-1.91,3.21-1.07,0-1.74-.5-1.74-3.08V9.94h4.32V8.44H204.8V4h-1.94c-.2,3-.67,4.45-3.78,4.45V9.94H202v2.78ZM222.81,24.3h8.64V22.9h-1.14c-1,0-1.54-.4-1.54-1.91V13c0-3.45-1.87-5-5.19-5a5.55,5.55,0,0,0-5.12,2.61h-.1V8.17c-1.64.17-4.52.27-5.83.27V9.94h1.64c1.28,0,1.51.77,1.51,1.64V21c0,1.17-.53,1.94-2.21,1.94h-.94V24.3h8.84V22.9h-.67c-1.67,0-2.21-.77-2.21-1.94V15.2c0-2.91,1.24-5.42,4.29-5.42,2.14,0,3.18,1.31,3.18,4.52v6.59c0,1.64-.67,2-1.68,2h-1.47V24.3Zm14.8-9.44c.13-3.21,1.57-5.22,4.18-5.22,2.38,0,3.65,1.91,3.68,5.22Zm8.06,4.92a3.68,3.68,0,0,1-3.85,3.31c-2.64,0-4.18-2-4.21-6.63h10.68V14.56c0-4.62-2.92-6.53-6.4-6.53-4.48,0-7.23,2.88-7.23,8.34,0,5.79,2.51,8.34,7.13,8.34,3.45,0,5.73-1.51,6.23-4.92Zm5.8-9.84h1.64c1.27,0,1.5.77,1.5,1.64V21c0,1.17-.53,1.94-2.21,1.94h-.93V24.3H261V22.9h-1.34c-1.67,0-2.21-.77-2.21-1.94V15.43c0-4,2.31-5.19,3.55-5.19s1.91.84,2.21,2.34h1.74V8.3a22.21,22.21,0,0,0-2.37-.13c-2.62,0-4.12.94-5.33,3.38h-.06V8.17c-1.51.17-4.39.27-5.69.27V9.94ZM268.07,24a26.37,26.37,0,0,0,5.72.67c4.29,0,6.6-1.94,6.6-4.85,0-6.13-9.44-3.85-9.44-7.63,0-1.51.87-2.58,3.41-2.58s3.32.64,3.32,3.68h1.74V8.8A16,16,0,0,0,274.56,8C270.08,8,268,9.91,268,12.79c0,5.76,9.44,3.35,9.44,7.47,0,1.84-1.24,2.85-3.78,2.85-3.15,0-3.38-.94-3.65-4h-1.94v5Zm26.21.27h8.64V22.9h-1.14c-1,0-1.54-.4-1.54-1.91V13c0-3.45-1.88-5-5.06-5a5.55,5.55,0,0,0-5.12,2.61H290V0c-1.77.17-4.65.27-6,.27V1.77h1.64c1.28,0,1.51.77,1.51,1.64V21c0,1.17-.54,1.94-2.21,1.94H284V24.3h8.84V22.9h-.67c-1.67,0-2.21-.77-2.21-1.94V15.2c0-2.91,1.24-5.42,4.29-5.42,2.14,0,3.18,1.31,3.18,4.52v6.59c0,1.64-.67,2-1.68,2h-1.47V24.3ZM305.53,9.94h1.64c1.27,0,1.5.77,1.5,1.64V21c0,1.17-.53,1.94-2.21,1.94h-.93V24.3h8.83V22.9h-.67c-1.67,0-2.2-.77-2.2-1.94V8.17c-1.78.17-4.66.27-6,.27V9.94ZM308,2.48c0,1.41.73,2.21,2,2.21s2-.8,2-2.21-.74-2.21-2-2.21-2,.8-2,2.21ZM317,9.94h1.64c1.27,0,1.5.77,1.5,1.64V28.15c0,1.17-.53,1.94-2.21,1.94H317V31.5h9V30.09h-.81c-1.67,0-2.21-.77-2.21-1.94V22.46H323a5.85,5.85,0,0,0,4.75,2.24c3,0,6.77-1.61,6.77-8.87,0-5.05-2.61-7.8-6.26-7.8a5.77,5.77,0,0,0-5.39,3h-.07V8.17c-1.64.17-4.52.27-5.82.27V9.94Zm14.59,6.43c0,4.38-1.47,6.59-4.32,6.59s-4.32-2.21-4.32-6.59,1.51-6.6,4.32-6.6,4.32,2.24,4.32,6.6Z" style="fill:#fff"/></svg>