<svg xmlns="http://www.w3.org/2000/svg" viewBox="0 0 1434 87.05"><title>Asset 4</title><path d="M82.84,15.71V.69h0A.67.67,0,0,0,82.17,0H.67A.67.67,0,0,0,0,.69H0v15H0a.67.67,0,0,0,.67.66H32.23a.67.67,0,0,1,.67.66h0V86.39h0a.66.66,0,0,0,.67.66H49.28a.66.66,0,0,0,.67-.66h0V17h0a.67.67,0,0,1,.67-.66H82.17a.67.67,0,0,0,.67-.66Z" style="fill:#f0c1a9"/><path d="M208.49.69v85.7a.67.67,0,0,1-.67.66H192.11a.66.66,0,0,1-.67-.66h0v-34h0a.67.67,0,0,0-.67-.66H145.84a.66.66,0,0,0-.67.66h0v34a.66.66,0,0,1-.67.66H128.79a.67.67,0,0,1-.67-.66h0V.69h0a.67.67,0,0,1,.67-.66H144.5a.66.66,0,0,1,.67.66v34h0a.66.66,0,0,0,.67.66h44.94a.66.66,0,0,0,.67-.66h0V.69h0a.66.66,0,0,1,.67-.66h15.71a.67.67,0,0,1,.67.66Z" style="fill:#f0c1a9"/><path d="M547.23,70V52.37h0a.66.66,0,0,1,.65-.65h49.05a.66.66,0,0,0,.67-.66h0V36h0a.66.66,0,0,0-.67-.66h-49a.67.67,0,0,1-.67-.66h0V17h0a.67.67,0,0,1,.67-.66h55.3a.67.67,0,0,0,.67-.66h0V.69h0A.67.67,0,0,0,603.2,0H530.85a.67.67,0,0,0-.67.66v85.7h0a.67.67,0,0,0,.67.66H603.2a.67.67,0,0,0,.67-.66h0v-15h0a.66.66,0,0,0-.67-.66H547.9a.67.67,0,0,1-.67-.66Z" style="fill:#f0c1a9"/><path d="M725.2,19l0-.17A26,26,0,0,0,700.28,0H679a25.84,25.84,0,1,0,0,51.69h22.41c5.89,0,9.83,4.25,9.83,9.48s-4.76,9.5-9.76,9.5h-24.1a9,9,0,0,1-8.48-6.27c-.17-.57-.61-.7-1.19-.58l-14.88,3.55a.7.7,0,0,0-.58.71,1.47,1.47,0,0,0,.08.37A25.68,25.68,0,0,0,676.84,87l24.52,0a25.84,25.84,0,1,0,0-51.69H679a9.67,9.67,0,0,1-9.82-9.5,9.68,9.68,0,0,1,9.82-9.5h21.4a9.16,9.16,0,0,1,8.56,6.45l.06.1a.52.52,0,0,0,.56.34l15.21-3.66a.55.55,0,0,0,.46-.61Z" style="fill:#f0c1a9"/><path d="M918.94.68a.68.68,0,0,0-.68-.68H902.59a.72.72,0,0,0-.64.62h0l-8.17,56.22h0a.71.71,0,0,1-.69.7.91.91,0,0,1-.81-.58l-19-39.19a.72.72,0,0,0-.64-.43H860.39a.72.72,0,0,0-.64.43L840.74,57a.91.91,0,0,1-.81.58.72.72,0,0,1-.69-.7h0L831.07.62h0a.72.72,0,0,0-.64-.62H814.75a.68.68,0,0,0-.68.68L826.53,86.4a.67.67,0,0,0,.66.63h17.5a1,1,0,0,0,.88-.53l20.36-42a.62.62,0,0,1,1.15,0l20.36,42a1,1,0,0,0,.88.53h17.5a.67.67,0,0,0,.66-.62L918.94.68Z" style="fill:#f0c1a9"/><path d="M1049.06.69v85.7a.66.66,0,0,1-.66.66h-15.72a.66.66,0,0,1-.66-.66v-34h0a.67.67,0,0,0-.67-.66H986.41a.67.67,0,0,0-.67.66h0v34a.66.66,0,0,1-.66.66H969.36a.67.67,0,0,1-.67-.66h0V.69h0a.67.67,0,0,1,.67-.66h15.72a.66.66,0,0,1,.66.66v34h0a.67.67,0,0,0,.67.66h44.94a.67.67,0,0,0,.67-.66h0V.69a.66.66,0,0,1,.66-.66h15.72a.66.66,0,0,1,.66.66Z" style="fill:#f0c1a9"/><path d="M1310.47,86.13,1295.3,51.07l-.08-.26c-.13-.29,0-.43.22-.55l.13-.08a26.77,26.77,0,0,0,13.72-23.33c0-14.48-11.59-26.82-26-26.82H1231a.66.66,0,0,0-.66.66h0v85.7h0a.66.66,0,0,0,.66.66h15.72a.65.65,0,0,0,.66-.65V54.31h0a.65.65,0,0,1,.63-.65h29.8a.65.65,0,0,1,.59.44l14.28,32.62a.6.6,0,0,0,.52.35h16.68a.63.63,0,0,0,.61-.62,1.12,1.12,0,0,0-.07-.29ZM1292.4,26.84a10.54,10.54,0,0,1-10.61,10.47h-33.7a.66.66,0,0,1-.66-.66h0V17h0a.66.66,0,0,1,.66-.66h33.7a10.54,10.54,0,0,1,10.61,10.47Z" style="fill:#f0c1a9"/><path d="M1434,15.71V.69h0a.67.67,0,0,0-.67-.66H1361a.67.67,0,0,0-.67.66h0v85.7h0a.67.67,0,0,0,.67.66h15.75a.66.66,0,0,0,.63-.65h0v-34h0a.66.66,0,0,1,.65-.65h49.05a.67.67,0,0,0,.67-.66h0V36h0a.67.67,0,0,0-.67-.66h-49a.67.67,0,0,1-.67-.66h0V17h0a.67.67,0,0,1,.67-.66h55.3a.67.67,0,0,0,.67-.66Z" style="fill:#f0c1a9"/><path d="M345.68,86.38,308.4.43a.64.64,0,0,0-.57-.4h-17.2a.64.64,0,0,0-.57.4L252.77,86.38a.68.68,0,0,0,.67.67H270a.64.64,0,0,0,.55-.37l8.06-18.19a.64.64,0,0,1,.58-.42h40.09a.64.64,0,0,1,.57.42l8.07,18.19a.64.64,0,0,0,.55.37H345a.68.68,0,0,0,.67-.67ZM312.29,51a.68.68,0,0,1-.68.67H286.84a.68.68,0,0,1-.68-.67,1.39,1.39,0,0,1,.06-.3l12.41-28.45a.62.62,0,0,1,1.2,0l12.4,28.45a1.39,1.39,0,0,1,.06.3Z" style="fill:#f0c1a9"/><path d="M1186.18,86.38,1148.89.43a.64.64,0,0,0-.57-.4h-17.2a.64.64,0,0,0-.57.4l-37.28,85.95a.67.67,0,0,0,.67.67h16.54a.65.65,0,0,0,.56-.37l8.06-18.19a.64.64,0,0,1,.57-.42h40.1a.64.64,0,0,1,.57.42l8.07,18.19a.62.62,0,0,0,.55.37h16.54a.68.68,0,0,0,.68-.67ZM1152.78,51a.67.67,0,0,1-.67.67h-24.78a.67.67,0,0,1-.68-.67,1.4,1.4,0,0,1,.06-.3l12.41-28.45a.62.62,0,0,1,1.2,0l12.4,28.45a1.4,1.4,0,0,1,.06.3Z" style="fill:#f0c1a9"/><path d="M478.43,86.37V.71a.68.68,0,0,0-.69-.68H462a1.43,1.43,0,0,0-1.1.68L434.74,46a.62.62,0,0,1-1.09,0L407.45.71a1.43,1.43,0,0,0-1.1-.68h-15.7a.68.68,0,0,0-.68.68V86.37a.68.68,0,0,0,.68.68h15.68a.69.69,0,0,0,.68-.68V36.52h0v0h0a.69.69,0,0,1,.68-.65.65.65,0,0,1,.55.34l18.85,32.49a1,1,0,0,0,.85.52l12.57,0a.73.73,0,0,0,.68-.4l18.92-32.6a.66.66,0,0,1,.55-.34.69.69,0,0,1,.68.65h0v0h0V86.37a.69.69,0,0,0,.69.68h15.68a.69.69,0,0,0,.69-.68Z" style="fill:#f0c1a9"/></svg>