<svg xmlns="http://www.w3.org/2000/svg" viewBox="0 0 174 42.92"><title>Asset 5</title><path d="M38.76,42.58H50.28V41.31H40.13V23.73H38.76V42.58Zm20.48.34c5.11,0,8.49-4.19,8.49-9.78s-3.37-9.78-8.49-9.78-8.44,4.19-8.44,9.78,3.32,9.78,8.44,9.78Zm0-1.24c-4.59,0-7-3.87-7-8.54s2.43-8.54,7-8.54,7.07,3.88,7.07,8.54-2.48,8.54-7.07,8.54Zm11.44.9H72V25.79h.05s1.32,2.18,2.37,3.77l8.65,13h1.45V23.73H83.21V40.6h-.05S82.1,38.76,81,37L72.21,23.73H70.68V42.58Zm17.53,0h6.41c5.48,0,8-3.82,8-9.36s-2.37-9.49-7.86-9.49H88.21V42.58Zm1.37-1.21V25h5.17c4.56,0,6.49,3.27,6.49,8.25s-2.11,8.15-6.67,8.15Zm23.73,1.55c5.11,0,8.49-4.19,8.49-9.78s-3.37-9.78-8.49-9.78-8.44,4.19-8.44,9.78,3.32,9.78,8.44,9.78Zm0-1.24c-4.59,0-7-3.87-7-8.54s2.43-8.54,7-8.54,7.06,3.88,7.06,8.54-2.48,8.54-7.06,8.54Zm11.44.9h1.32V25.79h.05s1.32,2.18,2.37,3.77l8.65,13h1.45V23.73h-1.32V40.6h-.05S136.17,38.76,135,37l-8.75-13.31h-1.53V42.58Z" style="fill:#fff"/><path d="M38.89,19.27h2.37V12.6l3-3,7.09,9.7h2.77L45.9,8,53.52.42h-3L41.26,9.78V.42H38.89V19.27Zm17.4,0H69.92V17.08H58.66V10.47H68.6v-2H58.66V2.51H69.6V.42H56.29V19.27Zm22.14,0h2.37V11.34L87.71.42H85.18l-5.48,9h-.05l-5.4-9H71.6l6.83,10.87v8Zm17.8.37c4.06,0,6.93-2,6.93-5.51,0-4.24-3.35-5.14-7-5.88-2.82-.55-4.93-1.18-4.93-3.32,0-2,1.69-3,4.24-3,2.77,0,4.51,1.34,4.85,4h2.24c-.47-3.48-2.43-5.88-7.15-5.88C91.59.05,89,1.93,89,5c0,3.56,2.85,4.51,6.17,5.24s5.64,1.35,5.64,3.93c0,2.35-1.87,3.53-4.48,3.53-3.56,0-5.51-1.66-5.83-4.85H88.19c.21,3.8,2.74,6.75,8,6.75Zm8-17.13h6.28V19.27h2.37V2.51h6.27V.42H104.19V2.51Zm25,17.16c5.69,0,9.23-4.19,9.23-9.84S134.9,0,129.21,0,120,4.19,120,9.83s3.53,9.84,9.23,9.84Zm0-2.08c-4.43,0-6.8-3.33-6.8-7.76s2.37-7.77,6.8-7.77S136,5.41,136,9.83s-2.37,7.76-6.8,7.76Zm12.47,1.68h2.21V3.8h.05s.79,1.42,1.4,2.34L154,19.27h2.43V.42H154.2V15.95h-.05s-.74-1.45-1.37-2.42L144.18.42h-2.5V19.27Zm18.69,0H174V17.08H162.74V10.47h9.94v-2h-9.94V2.51h10.94V.42H160.37V19.27Z" style="fill:#fff"/><polygon points="0 0 0 20.48 6.53 20.48 11.42 0 0 0 0 0" style="fill:#fff"/><polygon points="0 42.61 0 22.13 6.53 22.13 11.42 42.61 0 42.61 0 42.61" style="fill:#fff"/></svg>